<svg aria-hidden="true" focusable="false" data-prefix="fad" data-icon="clock" class="svg-inline--fa fa-clock fa-w-16" role="img" xmlns="http://www.w3.org/2000/svg" viewBox="0 0 512 512"><g class="fa-group"><path class="fa-secondary" fill="currentColor" d="M220 116a12 12 0 0 1 12-12h48a12 12 0 0 1 12 12v137.7l63.5 46.2a12 12 0 0 1 2.6 16.8l-28.2 38.8a12.08 12.08 0 0 1-16.8 2.6L224.9 294a12.08 12.08 0 0 1-4.9-9.7z" opacity="0.4"></path><path class="fa-primary" fill="currentColor" d="M256 8C119 8 8 119 8 256s111 248 248 248 248-111 248-248S393 8 256 8zm102.1 308.7l-28.2 38.8a12.08 12.08 0 0 1-16.8 2.6L224.9 294a12.08 12.08 0 0 1-4.9-9.7V116a12 12 0 0 1 12-12h48a12 12 0 0 1 12 12v137.7l63.5 46.2a12 12 0 0 1 2.6 16.8z"></path></g></svg>