<svg aria-hidden="true" focusable="false" data-prefix="fad" data-icon="compress-alt" role="img" xmlns="http://www.w3.org/2000/svg" viewBox="0 0 448 512" class="svg-inline--fa fa-compress-alt fa-w-14"><g class="fa-group"><path fill="currentColor" d="M224 280v112c0 21.38-25.8 32.09-40.92 17L152 376l-99.31 99.31a16 16 0 0 1-22.63 0L4.69 449.94a16 16 0 0 1 0-22.63L104 328l-32.92-31c-15.12-15.12-4.41-41 17-41h112A24 24 0 0 1 224 280z" class="fa-secondary" opacity="0.4"></path><path fill="currentColor" d="M443.31 62.06a16 16 0 0 1 0 22.63L344 184l32.92 31c15.12 15.12 4.41 41-17 41H248a24 24 0 0 1-24-24V120c0-21.38 25.8-32.09 40.92-17L296 136l99.31-99.31a16 16 0 0 1 22.63 0z" class="fa-primary"></path></g></svg>
