<svg aria-hidden="true" focusable="false" data-prefix="fad" data-icon="ellipsis-v-alt" class="svg-inline--fa fa-ellipsis-v-alt fa-w-6" role="img" xmlns="http://www.w3.org/2000/svg" viewBox="0 0 192 512"><g class="fa-group"><path class="fa-secondary" fill="currentColor" d="M168 80a72 72 0 1 0-72 72 72 72 0 0 0 72-72zm-96 0a24 24 0 1 1 24 24 24 24 0 0 1-24-24zm96 352a72 72 0 1 0-72 72 72 72 0 0 0 72-72zm-96 0a24 24 0 1 1 24 24 24 24 0 0 1-24-24zm96-176a72 72 0 1 0-72 72 72 72 0 0 0 72-72zm-96 0a24 24 0 1 1 24 24 24 24 0 0 1-24-24z" opacity="0.4"></path><path class="fa-primary" fill="currentColor" d="M120 80a24 24 0 1 0-24 24 24 24 0 0 0 24-24zm0 176a24 24 0 1 0-24 24 24 24 0 0 0 24-24zm0 176a24 24 0 1 0-24 24 24 24 0 0 0 24-24z"></path></g></svg>