<svg aria-hidden="true" focusable="false" data-prefix="fad" data-icon="expand" class="svg-inline--fa fa-expand fa-w-14" role="img" xmlns="http://www.w3.org/2000/svg" viewBox="0 0 448 512"><g class="fa-group"><path class="fa-secondary" fill="currentColor" d="M148 32H24A23.94 23.94 0 0 0 0 56v124a12 12 0 0 0 12 12h40a12 12 0 0 0 12-12V96h84a12 12 0 0 0 12-12V44a12 12 0 0 0-12-12zm288 288h-40a12 12 0 0 0-12 12v84h-84a12 12 0 0 0-12 12v40a12 12 0 0 0 12 12h124a23.94 23.94 0 0 0 24-24V332a12 12 0 0 0-12-12z" opacity="0.4"></path><path class="fa-primary" fill="currentColor" d="M148 416H64v-84a12 12 0 0 0-12-12H12a12 12 0 0 0-12 12v124a23.94 23.94 0 0 0 24 24h124a12 12 0 0 0 12-12v-40a12 12 0 0 0-12-12zM424 32H300a12 12 0 0 0-12 12v40a12 12 0 0 0 12 12h84v84a12 12 0 0 0 12 12h40a12 12 0 0 0 12-12V56a23.94 23.94 0 0 0-24-24z"></path></g></svg>