<svg aria-hidden="true" focusable="false" data-prefix="fad" data-icon="minus-square" class="svg-inline--fa fa-minus-square fa-w-14" role="img" xmlns="http://www.w3.org/2000/svg" viewBox="0 0 448 512"><g class="fa-group"><path class="fa-secondary" fill="currentColor" d="M400 32H48A48 48 0 0 0 0 80v352a48 48 0 0 0 48 48h352a48 48 0 0 0 48-48V80a48 48 0 0 0-48-48zm-32 252a12 12 0 0 1-12 12H92a12 12 0 0 1-12-12v-56a12 12 0 0 1 12-12h264a12 12 0 0 1 12 12z" opacity="0.4"></path><path class="fa-primary" fill="currentColor" d="M368 228v56a12 12 0 0 1-12 12H92a12 12 0 0 1-12-12v-56a12 12 0 0 1 12-12h264a12 12 0 0 1 12 12z"></path></g></svg>