<svg aria-hidden="true" focusable="false" data-prefix="fad" data-icon="plus-square" class="svg-inline--fa fa-plus-square fa-w-14" role="img" xmlns="http://www.w3.org/2000/svg" viewBox="0 0 448 512"><g class="fa-group"><path class="fa-secondary" fill="currentColor" d="M400 32H48A48 48 0 0 0 0 80v352a48 48 0 0 0 48 48h352a48 48 0 0 0 48-48V80a48 48 0 0 0-48-48zm-32 252a12 12 0 0 1-12 12h-92v92a12 12 0 0 1-12 12h-56a12 12 0 0 1-12-12v-92H92a12 12 0 0 1-12-12v-56a12 12 0 0 1 12-12h92v-92a12 12 0 0 1 12-12h56a12 12 0 0 1 12 12v92h92a12 12 0 0 1 12 12z" opacity="0.4"></path><path class="fa-primary" fill="currentColor" d="M80 228a12 12 0 0 1 12-12h92v-92a12 12 0 0 1 12-12h56a12 12 0 0 1 12 12v92h92a12 12 0 0 1 12 12v56a12 12 0 0 1-12 12h-92v92a12 12 0 0 1-12 12h-56a12 12 0 0 1-12-12v-92H92a12 12 0 0 1-12-12z"></path></g></svg>