<svg aria-hidden="true" focusable="false" data-prefix="fad" data-icon="save" class="svg-inline--fa fa-save fa-w-14" role="img" xmlns="http://www.w3.org/2000/svg" viewBox="0 0 448 512"><g class="fa-group"><path class="fa-secondary" fill="currentColor" d="M288 352a64 64 0 1 1-64-64 64 64 0 0 1 64 64z" opacity="0.4"></path><path class="fa-primary" fill="currentColor" d="M433.94 129.94l-83.88-83.88A48 48 0 0 0 316.12 32H48A48 48 0 0 0 0 80v352a48 48 0 0 0 48 48h352a48 48 0 0 0 48-48V163.88a48 48 0 0 0-14.06-33.94zM224 416a64 64 0 1 1 64-64 64 64 0 0 1-64 64zm96-204a12 12 0 0 1-12 12H76a12 12 0 0 1-12-12V108a12 12 0 0 1 12-12h228.52a12 12 0 0 1 8.48 3.52l3.48 3.48a12 12 0 0 1 3.52 8.48z"></path></g></svg>