<svg aria-hidden="true" focusable="false" data-prefix="fad" data-icon="share-alt" class="svg-inline--fa fa-share-alt fa-w-14" role="img" xmlns="http://www.w3.org/2000/svg" viewBox="0 0 448 512"><g class="fa-group"><path class="fa-secondary" fill="currentColor" d="M155.79 180.9l102.49-64.06a95.93 95.93 0 0 0 33.93 54.26l-102.49 64.06a95.93 95.93 0 0 0-33.93-54.26zm136.42 160l-102.49-64.06a95.93 95.93 0 0 1-33.93 54.26l102.49 64.06a95.93 95.93 0 0 1 33.93-54.26z" opacity="0.4"></path><path class="fa-primary" fill="currentColor" d="M96 160a96 96 0 1 0 96 96 96 96 0 0 0-96-96zm256 32a96 96 0 1 0-96-96 96 96 0 0 0 96 96zm0 128a96 96 0 1 0 96 96 96 96 0 0 0-96-96z"></path></g></svg>