<svg aria-hidden="true" focusable="false" data-prefix="fad" data-icon="star-of-life" class="svg-inline--fa fa-star-of-life fa-w-18" role="img" xmlns="http://www.w3.org/2000/svg" viewBox="0 0 480 512"><path d="M 2.1401 155.72 l 32 -55.429 A 16 16 0 0 1 56 94.43l184 106.43 L 424 94.42 a 16 16 0 0 1 21.86 5.84 l 32 55.429a16 16 0 0 1-5.86 21.87L288 284.19V496a16 16 0 0 1-16 16h-64a16 16 0 0 1-16-16V284.18L8 177.57a16 16 0 0 1-5.86-21.85z" class="fa-secondary" opacity="0.4"/><path d="M477.871 356.55l-32 55.429a16 16 0 0 1-21.87 5.86L240 311.41 56 417.85A16 16 0 0 1 34.15 412l-32-55.429A16 16 0 0 1 8 334.7 l 184-106.62 V 16.269a16 16 0 0 1 16-16 h 64 a 16 16 0 0 1 16 16v211.82L472 334.7a16 16 0 0 1 5.87 21.85z" class="fa-primary"/></svg>

