<svg aria-hidden="true" focusable="false" data-prefix="fad" data-icon="stopwatch" class="svg-inline--fa fa-stopwatch fa-w-14" role="img" xmlns="http://www.w3.org/2000/svg" viewBox="0 0 448 512"><g class="fa-group"><path class="fa-secondary" fill="currentColor" d="M224 96C109.12 96 16 189.12 16 304s93.12 208 208 208 208-93.12 208-208S338.88 96 224 96zm32 240a16 16 0 0 1-16 16h-32a16 16 0 0 1-16-16V208.5a16 16 0 0 1 16-16h32a16 16 0 0 1 16 16z" opacity="0.4"></path><path class="fa-primary" fill="currentColor" d="M240 192.5h-32a16 16 0 0 0-16 16V336a16 16 0 0 0 16 16h32a16 16 0 0 0 16-16V208.5a16 16 0 0 0-16-16zm188.53-48.57l-28.3-28.3a12 12 0 0 0-17 0l-27.45 27.45a209.14 209.14 0 0 1 42.8 47.8l.55-.55 29.4-29.4a12 12 0 0 0 0-17zM280 0H168a16 16 0 0 0-16 16v32a16 16 0 0 0 16 16h24v34.45a210 210 0 0 1 64 0V64h24a16 16 0 0 0 16-16V16a16 16 0 0 0-16-16z"></path></g></svg>