<svg aria-hidden="true" focusable="false" data-prefix="fad" data-icon="trash-alt" class="svg-inline--fa fa-trash-alt fa-w-14" role="img" xmlns="http://www.w3.org/2000/svg" viewBox="0 0 448 512"><g class="fa-group"><path class="fa-secondary" fill="currentColor" d="M32 464a48 48 0 0 0 48 48h288a48 48 0 0 0 48-48V96H32zm272-288a16 16 0 0 1 32 0v224a16 16 0 0 1-32 0zm-96 0a16 16 0 0 1 32 0v224a16 16 0 0 1-32 0zm-96 0a16 16 0 0 1 32 0v224a16 16 0 0 1-32 0z" opacity="0.4"></path><path class="fa-primary" fill="currentColor" d="M432 32H312l-9.4-18.7A24 24 0 0 0 281.1 0H166.8a23.72 23.72 0 0 0-21.4 13.3L136 32H16A16 16 0 0 0 0 48v32a16 16 0 0 0 16 16h416a16 16 0 0 0 16-16V48a16 16 0 0 0-16-16zM128 160a16 16 0 0 0-16 16v224a16 16 0 0 0 32 0V176a16 16 0 0 0-16-16zm96 0a16 16 0 0 0-16 16v224a16 16 0 0 0 32 0V176a16 16 0 0 0-16-16zm96 0a16 16 0 0 0-16 16v224a16 16 0 0 0 32 0V176a16 16 0 0 0-16-16z"></path></g></svg>