<svg aria-hidden="true" focusable="false" data-prefix="fad" data-icon="user-crown" class="svg-inline--fa fa-user-crown fa-w-14" role="img" xmlns="http://www.w3.org/2000/svg" viewBox="0 0 448 512"><g class="fa-group"><path class="fa-secondary" fill="currentColor" d="M352 96H96V0l64 32 64-32 64 32 64-32z" opacity="0.4"></path><path class="fa-primary" fill="currentColor" d="M313.6 304h-16.71a174 174 0 0 1-145.78 0H134.4A134.4 134.4 0 0 0 0 438.4V464a48 48 0 0 0 48 48h352a48 48 0 0 0 48-48v-25.6A134.4 134.4 0 0 0 313.6 304zM224 272a128 128 0 0 0 128-128v-16H96v16a128 128 0 0 0 128 128z"></path></g></svg>