<svg aria-hidden="true" focusable="false" data-prefix="fad" data-icon="window-maximize" class="svg-inline--fa fa-window-maximize fa-w-16" role="img" xmlns="http://www.w3.org/2000/svg" viewBox="0 0 512 512"><g class="fa-group"><path class="fa-secondary" fill="currentColor" d="M448 192H64v-84a12 12 0 0 1 12-12h360a12 12 0 0 1 12 12z" opacity="0.4"></path><path class="fa-primary" fill="currentColor" d="M464 32H48A48 48 0 0 0 0 80v352a48 48 0 0 0 48 48h416a48 48 0 0 0 48-48V80a48 48 0 0 0-48-48zm-16 160H64v-84a12 12 0 0 1 12-12h360a12 12 0 0 1 12 12z"></path></g></svg>