<?xml version="1.0" encoding="UTF-8" standalone="no"?>
<svg
   xmlns:dc="http://purl.org/dc/elements/1.1/"
   xmlns:cc="http://creativecommons.org/ns#"
   xmlns:rdf="http://www.w3.org/1999/02/22-rdf-syntax-ns#"
   xmlns:svg="http://www.w3.org/2000/svg"
   xmlns="http://www.w3.org/2000/svg"
   xmlns:sodipodi="http://sodipodi.sourceforge.net/DTD/sodipodi-0.dtd"
   xmlns:inkscape="http://www.inkscape.org/namespaces/inkscape"
   viewBox="0 0 512 512"
   version="1.1"
   id="svg14"
   sodipodi:docname="HTML5_logo_and_wordmark.svg"
   inkscape:version="1.0.1 (3bc2e813f5, 2020-09-07)">
  <metadata
     id="metadata20">
    <rdf:RDF>
      <cc:Work
         rdf:about="">
        <dc:format>image/svg+xml</dc:format>
        <dc:type
           rdf:resource="http://purl.org/dc/dcmitype/StillImage" />
      </cc:Work>
    </rdf:RDF>
  </metadata>
  <defs
     id="defs18" />
  <sodipodi:namedview
     pagecolor="#ffffff"
     bordercolor="#666666"
     borderopacity="1"
     objecttolerance="10"
     gridtolerance="10"
     guidetolerance="10"
     inkscape:pageopacity="0"
     inkscape:pageshadow="2"
     inkscape:window-width="2545"
     inkscape:window-height="1634"
     id="namedview16"
     showgrid="false"
     inkscape:zoom="1.96875"
     inkscape:cx="147.04762"
     inkscape:cy="256"
     inkscape:window-x="485"
     inkscape:window-y="215"
     inkscape:window-maximized="0"
     inkscape:current-layer="svg14" />
  <title
     id="title2">HTML5 Logo</title>
  <path
     d="M108.4 0h23v22.8h21.2V0h23v69h-23V46h-21v23h-23.2M206 23h-20.3V0h63.7v23H229v46h-23M259.5 0h24.1l14.8 24.3L313.2 0h24.1v69h-23V34.8l-16.1 24.8l-16.1-24.8v34.2h-22.6M348.7 0h23v46.2h32.6V69h-55.6"
     id="path4" />
  <path
     fill="#e44d26"
     d="M107.6 471l-33-370.4h362.8l-33 370.2L255.7 512"
     id="path6" />
  <path
     fill="#f16529"
     d="M256 480.5V131H404.3L376 447"
     id="path8" />
  <text
     xml:space="preserve"
     style="font-style:normal;font-weight:normal;font-size:40px;line-height:1.25;font-family:sans-serif;letter-spacing:0px;word-spacing:0px;fill:#000000;fill-opacity:1;stroke:none"
     x="168.39757"
     y="41.745628"
     id="text847"><tspan
       sodipodi:role="line"
       id="tspan845"
       x="168.39757"
       y="41.745628"></tspan></text>
</svg>
