<?xml version="1.0" encoding="UTF-8" standalone="no"?>
<svg
   xmlns:dc="http://purl.org/dc/elements/1.1/"
   xmlns:cc="http://creativecommons.org/ns#"
   xmlns:rdf="http://www.w3.org/1999/02/22-rdf-syntax-ns#"
   xmlns:svg="http://www.w3.org/2000/svg"
   xmlns="http://www.w3.org/2000/svg"
   viewBox="0 0 720 106.6"
   xml:space="preserve"
   id="svg2"
   version="1.1"><metadata
     id="metadata8"><rdf:RDF><cc:Work
         rdf:about=""><dc:format>image/svg+xml</dc:format><dc:type
           rdf:resource="http://purl.org/dc/dcmitype/StillImage" /></cc:Work></rdf:RDF></metadata><defs
     id="defs6" /><g
     transform="matrix(1.3333333,0,0,-1.3333333,0,106.6)"
     id="g10"><g
       transform="scale(0.1)"
       id="g12"><path
         id="path14"
         style="fill:#fccb07;fill-opacity:1;fill-rule:nonzero;stroke:none"
         d="M 0,16.1055 450.434,796.277 900.879,16.1055 Z" /><path
         id="path16"
         style="fill:#2e2d2d;fill-opacity:1;fill-rule:nonzero;stroke:none"
         d="M 450.438,301.527 384.656,254.184 V 79.8047 H 301.93 c 0,0 0,153.8123 0,209.7153 l 100.023,71.976 v 220.891 h 96.969 V 361.496 L 598.949,289.52 c 0,-55.903 0,-209.7153 0,-209.7153 H 516.223 V 254.184 l -65.785,47.343" /><path
         id="path18"
         style="fill:#2c672e;fill-opacity:1;fill-rule:nonzero;stroke:none"
         d="M 869.297,629.84 H 987.305 V 16.1055 H 1186.82 V 92.1953 629.84 h 118.49 V 783.395 H 869.297 V 629.84" /><path
         id="path20"
         style="fill:#2c672e;fill-opacity:1;fill-rule:nonzero;stroke:none"
         d="m 1597.48,490.742 c -9.01,-6.16 -24.72,-9.234 -47.16,-9.234 v 170.609 c 23.06,0 38.94,-3.793 47.63,-11.375 8.69,-7.578 13.03,-23.539 13.03,-47.867 v -42.18 c 0,-33.808 -4.5,-53.785 -13.5,-59.953 z m 176.53,-37.203 c 14.85,20.539 22.27,60.664 22.27,120.379 0,65.402 -10.5,113.027 -31.51,142.887 -21.02,29.859 -48.18,48.418 -81.51,55.687 -33.34,7.266 -97.08,10.903 -191.23,10.903 H 1350.8 V 139.82 16.1055 h 199.52 V 197.762 362.066 c 27.49,0 44.47,-4.898 50.95,-14.671 6.47,-9.813 9.71,-35.243 9.71,-76.301 V 215.383 16.1055 h 185.3 V 218.48 c 0,19.278 -0.18,35.958 -0.49,50.567 -0.71,32.308 -2.2,53.465 -4.48,62.933 -3.31,13.739 -11.77,28.821 -25.35,45.258 -13.6,16.438 -40.13,29.539 -79.62,39.332 43.6,4.106 72.82,16.43 87.67,36.969" /><path
         id="path22"
         style="fill:#2c672e;fill-opacity:1;fill-rule:nonzero;stroke:none"
         d="m 2044.01,290.039 c 1.18,15.41 2.77,32.973 4.73,52.469 6.68,66.359 17.85,156.219 33.56,269.797 7.63,-96.039 15.24,-180.508 22.83,-253.43 2.52,-24.223 5.05,-47.164 7.56,-68.836 z m 174.42,493.356 H 1930.06 L 1864.47,288.992 1828.28,16.1055 h 206.27 l 12,137.9145 h 71.37 l 10.71,-137.9145 h 203.9 l -58.28,391.8865 -55.82,375.403" /><path
         id="path24"
         style="fill:#2c672e;fill-opacity:1;fill-rule:nonzero;stroke:none"
         d="M 2366.42,434.754 V 16.1055 h 199.51 V 783.395 H 2366.42 V 434.754" /><path
         id="path26"
         style="fill:#2e2d2d;fill-opacity:1;fill-rule:nonzero;stroke:none"
         d="M 3015.22,623.164 V 16.1055 h 199.52 V 338.375 h 123.22 v 145.973 h -123.22 v 86.757 58.735 h 138.38 v 153.555 h -337.9 V 623.164" /><path
         id="path28"
         style="fill:#2e2d2d;fill-opacity:1;fill-rule:nonzero;stroke:none"
         d="m 3657.86,233.645 c 0,-45.196 -1.9,-73.774 -5.68,-85.786 -3.79,-12.011 -12.48,-18.004 -26.07,-18.004 -13.27,0 -21.73,5.219 -25.35,15.625 -3.64,10.438 -5.46,37.93 -5.46,82.485 v 243.836 114.437 c 0,39.492 2.76,63.27 8.3,71.328 5.52,8.059 13.51,12.082 23.93,12.082 12.33,0 20.45,-4.976 24.41,-14.925 3.94,-9.95 5.92,-32.778 5.92,-68.485 V 455.477 Z m 158.29,485.293 c -19.91,26.851 -46.21,46.992 -78.9,60.429 -32.7,13.426 -69.6,20.137 -110.67,20.137 -43.29,0 -81.2,-7.106 -113.74,-21.324 -32.54,-14.219 -58.38,-34.594 -77.49,-61.141 -19.11,-26.535 -30.48,-55.844 -34.13,-87.906 -2.62,-23.242 -4.29,-58.485 -5.01,-105.383 -0.27,-17.805 -0.42,-37.145 -0.42,-58.359 V 334.109 c 0,-78.992 1.89,-134.281 5.68,-165.871 3.8,-31.597 15.63,-60.828 35.54,-87.6794 19.91,-26.8555 46.21,-46.9922 78.91,-60.4102 C 3548.62,6.72266 3585.51,0 3626.58,0 c 43.29,0 81.2,7.10547 113.74,21.3242 32.54,14.2188 58.37,34.586 77.5,61.1406 19.1,26.5312 30.48,55.8322 34.12,87.9222 3.62,32.051 5.45,86.636 5.45,163.722 v 69.309 61.973 c 0,78.98 -1.9,134.277 -5.7,165.871 -3.78,31.59 -15.63,60.816 -35.54,87.676" /><path
         id="path30"
         style="fill:#2e2d2d;fill-opacity:1;fill-rule:nonzero;stroke:none"
         d="m 4178.47,490.742 c -9.01,-6.16 -24.73,-9.234 -47.16,-9.234 v 170.609 c 23.06,0 38.93,-3.793 47.63,-11.375 8.68,-7.578 13.04,-23.539 13.04,-47.867 v -42.18 c 0,-33.808 -4.52,-53.785 -13.51,-59.953 z M 4355,453.539 c 14.85,20.539 22.27,60.664 22.27,120.379 0,65.402 -10.5,113.027 -31.52,142.887 -21.01,29.859 -48.18,48.418 -81.51,55.687 -33.33,7.266 -97.07,10.903 -191.22,10.903 H 3931.79 V 384 16.1055 h 199.52 v 315.8355 30.125 c 27.48,0 44.46,-4.898 50.94,-14.671 3.58,-5.43 6.14,-15.793 7.73,-30.754 1.31,-12.121 2,-27.184 2,-45.547 V 16.1055 h 185.29 V 218.48 c 0,18.778 -0.17,35.063 -0.48,49.411 -0.69,32.964 -2.19,54.519 -4.48,64.089 -3.33,13.739 -11.79,28.821 -25.37,45.258 -13.59,16.438 -40.13,29.539 -79.62,39.332 43.6,4.106 72.82,16.43 87.68,36.969" /><path
         id="path32"
         style="fill:#2e2d2d;fill-opacity:1;fill-rule:nonzero;stroke:none"
         d="m 4815.65,436.953 114.46,346.442 H 4742.92 L 4654.04,485.301 V 783.395 H 4454.53 V 247.602 16.1055 h 199.51 V 195.543 345.016 l 39.24,-159.7 41.57,-169.2105 H 4941 l -33.77,113.3785 -91.58,307.469" /><path
         id="path34"
         style="fill:#2e2d2d;fill-opacity:1;fill-rule:nonzero;stroke:none"
         d="m 5365.4,375.813 c -23.07,33.816 -79,77.07 -167.83,129.785 -30.96,18.304 -49.76,33.949 -56.37,46.914 -6.93,12.965 -10.39,32.25 -10.39,57.855 0,19.922 3.07,34.774 9.24,44.574 6.16,9.809 15.24,14.707 27.25,14.707 11.06,0 18.96,-3.632 23.7,-10.902 4.75,-7.266 7.11,-24.164 7.11,-50.703 v -56.871 h 185.3 V 581.5 c 0,60.977 -5.93,104.184 -17.77,129.621 -11.85,25.426 -36.02,46.52 -72.51,63.274 -36.49,16.734 -80.65,25.109 -132.45,25.109 -47.42,0 -87.85,-7.668 -121.34,-22.984 -33.49,-15.329 -57.74,-36.571 -72.74,-63.743 -15.01,-27.175 -22.52,-70.14 -22.52,-128.902 0,-40.762 5.29,-74.258 15.88,-100.477 10.58,-26.226 23.93,-46.765 40.04,-61.605 16.12,-14.855 48.97,-38.715 98.58,-71.57 49.6,-32.539 80.72,-55.758 93.36,-69.657 12.33,-13.918 18.5,-43.453 18.5,-88.625 0,-20.531 -3.25,-36.023 -9.73,-46.461 -6.48,-10.406 -16.35,-15.625 -29.61,-15.625 -13.28,0 -22.53,4.106 -27.73,12.325 -5.21,8.218 -7.82,26.703 -7.82,55.441 v 93.371 h -185.31 v -50.234 c 0,-53.613 5.16,-95.668 15.32,-126.485 0.74,-2.246 1.43,-4.578 2.22,-6.683 11.67,-31.2892 36.41,-57.0353 74.16,-77.2658 C 5079.7,10.1133 5125.29,0 5178.68,0 c 48.01,0 90.15,8.57031 126.48,25.6563 0.49,0.2343 0.99,0.414 1.47,0.6562 36.65,17.5273 61.38,39.2422 74.18,65.1406 12.79,25.9099 19.19,66.1989 19.19,120.8669 0,75.188 -11.54,129.688 -34.6,163.493" /><path
         id="path36"
         style="fill:#2c672e;fill-opacity:1;fill-rule:nonzero;stroke:none"
         d="m 2845.55,573.895 v 209.5 H 2646.04 V 16.1055 h 320.84 V 169.664 h -121.33 v 404.231" /></g></g></svg>
